# xmcd
#
# Track frame offsets:
#   150
#   16675
#   27922
#   40647
#   52712
#   63447
#   76400
#   89667
#   107510
#   121870
#   145465
#   154407
#   166232
#   180190
#   195565
#
# Disc length: 2797 seconds
#
# Revision: 0
# Processed by: cddbd v1.5.2PL0 Copyright (c) Steve Scherf et al.
# Submitted via: GXTranscoder 2.0.1939
#
DISCID=b10aeb0f
DTITLE=? - Lo mejor del Country
DYEAR=2000
DGENRE=Country
TTITLE0=Tell me why
TTITLE1=Walking after midnight
TTITLE2=Ruby don't take your love to town
TTITLE3=Dreamin
TTITLE4=King of the road
TTITLE5=I'm a lonesome fugitive
TTITLE6=I just can't help believing
TTITLE7=Garden party
TTITLE8=Let your love flow
TTITLE9=Vincent
TTITLE10=Rawhide
TTITLE11=Don't think twicw it's alright
TTITLE12=Rhinstone Cowboy
TTITLE13=Sur love
TTITLE14=Don't let go
EXTD=
EXTT0=
EXTT1=
EXTT2=
EXTT3=
EXTT4=
EXTT5=
EXTT6=
EXTT7=
EXTT8=
EXTT9=
EXTT10=
EXTT11=
EXTT12=
EXTT13=
EXTT14=
PLAYORDER=
